<svg width="24" height="24" viewBox="0 0 24 24" fill="none" xmlns="http://www.w3.org/2000/svg">
<path d="M12.8942 16.2081C15.0215 14.5548 16.1336 12.2885 16.9755 9.8527C17.1017 9.48763 16.7147 9.13665 16.3514 9.26782C15.3662 9.6235 13.7263 10.099 11.9999 10.099C10.2736 10.099 8.63367 9.6235 7.64851 9.26782C7.28521 9.13665 6.89819 9.48763 7.02438 9.8527C7.86628 12.2885 8.97837 14.5548 11.1057 16.2081C11.6324 16.6175 12.3675 16.6175 12.8942 16.2081Z" fill="#3F484A" fill-opacity="0.1"/>
<path d="M12.8942 16.2081C15.0215 14.5548 16.1336 12.2885 16.9755 9.8527C17.1017 9.48763 16.7147 9.13665 16.3514 9.26782C15.3662 9.6235 13.7263 10.099 11.9999 10.099C10.2736 10.099 8.63367 9.6235 7.64851 9.26782C7.28521 9.13665 6.89819 9.48763 7.02438 9.8527C7.86628 12.2885 8.97837 14.5548 11.1057 16.2081C11.6324 16.6175 12.3675 16.6175 12.8942 16.2081Z" stroke="#6F797A" stroke-width="2.5" stroke-linecap="round" stroke-linejoin="round"/>
</svg>
