<svg width="24" height="24" viewBox="0 0 24 24" fill="none" xmlns="http://www.w3.org/2000/svg">
<path d="M12.9875 21.9041C15.1724 20.0113 20.2233 15.0376 20.2233 9.50913C20.2233 4.96742 16.5416 1.28564 11.9999 1.28564C7.45815 1.28564 3.77637 4.96742 3.77637 9.50913C3.77637 15.0376 8.82735 20.0113 11.0122 21.9041C11.5854 22.4007 12.4143 22.4007 12.9875 21.9041Z" fill="#3F484A" fill-opacity="0.1" stroke="#3F484A" stroke-width="2.5" stroke-linecap="round" stroke-linejoin="round"/>
<path d="M12 12.3946C13.8602 12.3946 15.3682 10.8866 15.3682 9.02639C15.3682 7.16619 13.8602 5.6582 12 5.6582C10.1398 5.6582 8.63184 7.16619 8.63184 9.02639C8.63184 10.8866 10.1398 12.3946 12 12.3946Z" stroke="#3F484A" stroke-width="2.5" stroke-linecap="round" stroke-linejoin="round"/>
</svg>
