<svg width="20" height="22" viewBox="0 0 20 22" fill="none" xmlns="http://www.w3.org/2000/svg">
<path d="M3.92532 2.07534C2.83214 3.16851 2.06559 4.52725 1.68848 5.99992M16.0157 2.07534C17.1088 3.16851 17.8754 4.52725 18.2525 5.99992" stroke="#3F484A" stroke-width="2.5" stroke-linecap="round" stroke-linejoin="round"/>
<path d="M6.48026 4.60079C7.41377 3.66728 8.67988 3.14285 10.0001 3.14285C11.3202 3.14285 12.5863 3.66728 13.5198 4.60079C14.4534 5.5343 14.9778 6.80041 14.9778 8.12058C14.9778 9.1426 15.14 9.96836 15.3885 10.6327C15.7082 11.4876 16.7487 11.7508 17.3873 12.4029C18.0956 13.126 17.8928 14.4138 17.1859 14.9365C17.1859 14.9365 15.9575 16 10.0001 16C4.04266 16 2.81418 14.9365 2.81418 14.9365C2.10731 14.4138 1.9045 13.126 2.61277 12.4029C3.2514 11.7508 4.2919 11.4876 4.61163 10.6327C4.86009 9.96836 5.02232 9.1426 5.02232 8.12059C5.02232 6.80041 5.54676 5.5343 6.48026 4.60079Z" fill="#3F484A" fill-opacity="0.1"/>
<path d="M6.48026 4.60079C7.41377 3.66728 8.67988 3.14285 10.0001 3.14285C11.3202 3.14285 12.5863 3.66728 13.5198 4.60079C14.4534 5.5343 14.9778 6.80041 14.9778 8.12058C14.9778 9.1426 15.14 9.96836 15.3885 10.6327C15.7082 11.4876 16.7487 11.7508 17.3873 12.4029C18.0956 13.126 17.8928 14.4138 17.1859 14.9365C17.1859 14.9365 15.9575 16 10.0001 16C4.04266 16 2.81418 14.9365 2.81418 14.9365C2.10731 14.4138 1.9045 13.126 2.61277 12.4029C3.2514 11.7508 4.2919 11.4876 4.61163 10.6327C4.86009 9.96836 5.02232 9.1426 5.02232 8.12059C5.02232 6.80041 5.54676 5.5343 6.48026 4.60079Z" stroke="#3F484A" stroke-width="2.5" stroke-linecap="round" stroke-linejoin="round"/>
<path d="M8.23682 18.7971C8.59803 19.4706 9.30876 19.9286 10.1265 19.9286C10.9442 19.9286 11.6549 19.4706 12.0161 18.7971" stroke="#3F484A" stroke-width="2.5" stroke-linecap="round" stroke-linejoin="round"/>
</svg>
