<svg width="4" height="19" viewBox="0 0 4 19" fill="none" xmlns="http://www.w3.org/2000/svg">
<path d="M1.99999 4.68357C3.03552 4.68357 3.87498 3.84411 3.87498 2.80858C3.87498 1.77305 3.03552 0.933594 1.99999 0.933594C0.964461 0.933594 0.125 1.77305 0.125 2.80858C0.125 3.84411 0.964461 4.68357 1.99999 4.68357Z" fill="#6C6E7B"/>
<path d="M1.99999 11.8086C3.03552 11.8086 3.87498 10.9691 3.87498 9.93358C3.87498 8.89805 3.03552 8.05859 1.99999 8.05859C0.964461 8.05859 0.125 8.89805 0.125 9.93358C0.125 10.9691 0.964461 11.8086 1.99999 11.8086Z" fill="#6C6E7B"/>
<path d="M1.99999 18.9336C3.03552 18.9336 3.87498 18.0941 3.87498 17.0586C3.87498 16.0231 3.03552 15.1836 1.99999 15.1836C0.964461 15.1836 0.125 16.0231 0.125 17.0586C0.125 18.0941 0.964461 18.9336 1.99999 18.9336Z" fill="#6C6E7B"/>
</svg>
