<svg width="24" height="24" viewBox="0 0 24 24" fill="none" xmlns="http://www.w3.org/2000/svg">
<path d="M8.12866 1.28271L8.12866 5.62472" stroke="#6F797A" stroke-width="2.5" stroke-linecap="round"/>
<path d="M15.8003 1.28271L15.8003 5.62472" stroke="#6F797A" stroke-width="2.5" stroke-linecap="round"/>
<path d="M1.86727 17.9975C2.14316 20.4589 4.14375 22.4132 6.61765 22.5323C8.32757 22.6147 10.0743 22.6575 11.9701 22.6575C13.8659 22.6575 15.6126 22.6147 17.3225 22.5323C19.7964 22.4132 21.797 20.4589 22.0729 17.9975C22.2587 16.34 22.4111 14.6406 22.4111 12.9095C22.4111 11.1784 22.2587 9.47906 22.0729 7.82154C21.797 5.36019 19.7964 3.40592 17.3225 3.28678C15.6126 3.20442 13.8659 3.16162 11.9701 3.16162C10.0743 3.16162 8.32757 3.20442 6.61765 3.28678C4.14375 3.40592 2.14316 5.36019 1.86727 7.82154C1.68148 9.47906 1.52905 11.1784 1.52905 12.9095C1.52905 14.6406 1.68148 16.34 1.86727 17.9975Z" stroke="#6F797A" stroke-width="2.5"/>
<path d="M7.09324 10.5546C6.85621 10.5546 6.66406 10.3625 6.66406 10.1255C6.66406 9.88844 6.85621 9.69629 7.09324 9.69629" stroke="#6F797A" stroke-width="2.5"/>
<path d="M7.09206 10.5546C7.32909 10.5546 7.52124 10.3625 7.52124 10.1255C7.52124 9.88844 7.32909 9.69629 7.09206 9.69629" stroke="#6F797A" stroke-width="2.5"/>
<path d="M7.09324 16.1533C6.85621 16.1533 6.66406 15.9611 6.66406 15.7241C6.66406 15.4871 6.85621 15.2949 7.09324 15.2949" stroke="#6F797A" stroke-width="2.5"/>
<path d="M7.09206 16.1533C7.32909 16.1533 7.52124 15.9611 7.52124 15.7241C7.52124 15.4871 7.32909 15.2949 7.09206 15.2949" stroke="#6F797A" stroke-width="2.5"/>
<path d="M12.0007 10.5546C11.7637 10.5546 11.5715 10.3625 11.5715 10.1255C11.5715 9.88844 11.7637 9.69629 12.0007 9.69629" stroke="#6F797A" stroke-width="2.5"/>
<path d="M11.9995 10.5546C12.2366 10.5546 12.4287 10.3625 12.4287 10.1255C12.4287 9.88844 12.2366 9.69629 11.9995 9.69629" stroke="#6F797A" stroke-width="2.5"/>
<path d="M16.9082 10.5546C16.6712 10.5546 16.479 10.3625 16.479 10.1255C16.479 9.88844 16.6712 9.69629 16.9082 9.69629" stroke="#6F797A" stroke-width="2.5"/>
<path d="M16.907 10.5546C17.144 10.5546 17.3362 10.3625 17.3362 10.1255C17.3362 9.88844 17.144 9.69629 16.907 9.69629" stroke="#6F797A" stroke-width="2.5"/>
</svg>
