<svg width="24" height="24" viewBox="0 0 24 24" fill="none" xmlns="http://www.w3.org/2000/svg">
<path d="M9.81818 17C9.36573 17 9 16.616 9 16.1429V8.42857C9 6.53771 10.4678 5 12.2727 5H14.3182C16.3481 5 18 6.73057 18 8.85714C18 10.9837 16.3481 12.7143 14.3182 12.7143H10.6364V16.1429C10.6364 16.616 10.2706 17 9.81818 17ZM10.6364 11H14.3182C15.4465 11 16.3636 10.0383 16.3636 8.85714C16.3636 7.676 15.4465 6.71429 14.3182 6.71429H12.2727C11.3703 6.71429 10.6364 7.48314 10.6364 8.42857V11Z" fill="#6C6E7B"/>
<path d="M19.5076 22.75C18.9401 22.739 18.3853 22.5804 17.8976 22.29L13.0176 19.58C12.8362 19.5009 12.6405 19.46 12.4426 19.46C12.2447 19.46 12.049 19.5009 11.8676 19.58L6.9876 22.29C6.58068 22.5585 6.10969 22.7138 5.62291 22.7402C5.13614 22.7665 4.65112 22.6629 4.2176 22.44C3.81404 22.1687 3.48951 21.7954 3.27698 21.3581C3.06445 20.9207 2.97151 20.4349 3.0076 19.95V5.86C3.00971 4.638 3.49609 3.46666 4.36017 2.60257C5.22426 1.73849 6.3956 1.25212 7.6176 1.25L17.2676 1.25C18.4896 1.25212 19.6609 1.73849 20.525 2.60257C21.3891 3.46666 21.8755 4.638 21.8776 5.86V19.95C21.9137 20.4349 21.8207 20.9207 21.6082 21.3581C21.3957 21.7954 21.0711 22.1687 20.6676 22.44C20.3163 22.6469 19.9153 22.7541 19.5076 22.75ZM12.4376 17.96C12.8903 17.9509 13.3377 18.0576 13.7376 18.27L18.6176 20.98C18.7987 21.1153 19.0114 21.202 19.2354 21.2318C19.4595 21.2615 19.6875 21.2334 19.8976 21.15C20.0703 21.0054 20.2038 20.8198 20.2859 20.6101C20.3681 20.4004 20.3962 20.1734 20.3676 19.95V5.86C20.365 5.03599 20.0365 4.24648 19.4538 3.66381C18.8711 3.08114 18.0816 2.75264 17.2576 2.75H7.6176C6.79358 2.75264 6.00408 3.08114 5.42141 3.66381C4.83874 4.24648 4.51023 5.03599 4.5076 5.86V19.95C4.47791 20.1735 4.50547 20.4008 4.58767 20.6107C4.66988 20.8206 4.80405 21.0061 4.9776 21.15C5.18817 21.2309 5.41564 21.2577 5.63924 21.228C5.86284 21.1983 6.07543 21.113 6.2576 20.98L11.1376 18.27C11.5375 18.0576 11.9849 17.9509 12.4376 17.96Z" fill="#6C6E7B"/>
</svg>
