<svg width="21" height="22" viewBox="0 0 21 22" fill="none" xmlns="http://www.w3.org/2000/svg">
<path d="M2.77648 2.83376C3.71213 1.8981 5.51396 1.70435 12.3336 4.50447C17.0865 6.45599 19.8319 7.61164 19.351 10.5862C19.1398 11.8925 17.7958 13.8979 16.2844 15.5105V18.4412C16.2844 19.6783 14.8163 20.3278 13.9009 19.4956L12.7451 18.4449C11.9267 18.9525 11.1491 19.308 10.529 19.4083C7.55437 19.8892 6.39872 17.1437 4.44719 12.3908C1.64707 5.57124 1.84083 3.76941 2.77648 2.83376Z" stroke="#FFEFED" stroke-width="2.5" stroke-linejoin="round"/>
<path d="M2.6471 2.97497L16.6665 15.0904C18.0167 13.5612 19.1578 11.7812 19.351 10.5862C19.8319 7.61164 17.0865 6.45599 12.3336 4.50447C5.51396 1.70435 3.71213 1.8981 2.77648 2.83376C2.73156 2.87868 2.68835 2.92559 2.6471 2.97497Z" fill="#FFB7AD" stroke="#FFEFED" stroke-width="2.5" stroke-linejoin="round"/>
</svg>
