<svg width="21" height="21" viewBox="0 0 21 21" fill="none" xmlns="http://www.w3.org/2000/svg">
<path d="M5.389 7.98403H4.456C3.47867 7.98403 2.54138 8.37227 1.85031 9.06334C1.15924 9.75441 0.770996 10.6917 0.770996 11.669L0.770996 16.544C0.771261 17.5212 1.15962 18.4582 1.85066 19.1491C2.5417 19.8399 3.47885 20.228 4.456 20.228H15.586C16.5631 20.228 17.5003 19.8399 18.1913 19.1491C18.8824 18.4582 19.2707 17.5212 19.271 16.544V11.659C19.271 10.6845 18.8839 9.74993 18.195 9.06076C17.506 8.3716 16.5715 7.98429 15.597 7.98403L14.654 7.98403" stroke="#287D0E" stroke-width="1.5" stroke-miterlimit="10" stroke-linecap="round" stroke-linejoin="round"/>
<path d="M10.021 1.19093V13.2319" stroke="#287D0E" stroke-width="1.5" stroke-miterlimit="10" stroke-linecap="round" stroke-linejoin="round"/>
<path d="M7.10596 4.11914L10.021 1.19114L12.937 4.11914" stroke="#287D0E" stroke-width="1.5" stroke-miterlimit="10" stroke-linecap="round" stroke-linejoin="round"/>
</svg>
