<svg width="25" height="25" viewBox="0 0 25 25" fill="none" xmlns="http://www.w3.org/2000/svg">
<path d="M11.9292 2.38875C12.2193 1.68131 13.2212 1.68131 13.5113 2.38875L15.9735 8.39248L22.6038 8.97366C23.3668 9.04055 23.6637 9.99985 23.0718 10.4861L18.5505 14.2002C18.303 14.4036 18.1899 14.7283 18.2575 15.0414L19.6718 21.5892C19.8341 22.3405 18.9997 22.9077 18.3608 22.4804L12.7202 18.7083L7.07974 22.4804C6.44079 22.9077 5.60643 22.3405 5.76871 21.5892L7.18296 15.0414C7.2506 14.7283 7.1375 14.4036 6.88996 14.2002L2.36866 10.4861C1.7768 9.99985 2.07369 9.04055 2.83673 8.97366L9.46701 8.39248L11.9292 2.38875Z" fill="#3F484A" fill-opacity="0.1"/>
<path d="M11.9292 2.38875C12.2193 1.68131 13.2212 1.68131 13.5113 2.38875L15.9735 8.39248L22.6038 8.97366C23.3668 9.04055 23.6637 9.99985 23.0718 10.4861L18.5505 14.2002C18.303 14.4036 18.1899 14.7283 18.2575 15.0414L19.6718 21.5892C19.8341 22.3405 18.9997 22.9077 18.3608 22.4804L12.7202 18.7083L7.07974 22.4804C6.44079 22.9077 5.60643 22.3405 5.76871 21.5892L7.18296 15.0414C7.2506 14.7283 7.1375 14.4036 6.88996 14.2002L2.36866 10.4861C1.7768 9.99985 2.07369 9.04055 2.83673 8.97366L9.46701 8.39248L11.9292 2.38875Z" stroke="#3F484A" stroke-width="2.5" stroke-linejoin="round"/>
</svg>
